<svg width="1440" height="1024" viewBox="0 0 1440 1024" fill="none" xmlns="http://www.w3.org/2000/svg">
<path d="M0 2.28882e-05C0 2.28882e-05 192 -161 175.5 -9.49998C159 142 22.5 283.5 109.5 497C196.5 710.5 -58.7269 944.607 250 1024C558.727 1103.39 0 1024 0 1024V2.28882e-05Z" fill="#2F353A"/>
<path d="M1190 2.47955e-05C1100.99 -40.1048 1440 2.47955e-05 1440 2.47955e-05V1024C1440 1024 1192 1327.5 1238 1063C1258.86 943.069 1413 671.5 1330.5 467.5C1248 263.5 1369.17 80.7245 1190 2.47955e-05Z" fill="#2F353A"/>
</svg>
