<svg xmlns="http://www.w3.org/2000/svg" width="1440" height="685" fill="none" viewBox="0 0 1440 685"><path fill="#2F353A" d="M-7.44444 0H1432.56C1432.56 0 1570.56 553 1432.56 650C1294.56 747 967.555 462.164 678.055 571.082C388.555 680 252.556 435.5 -7.44444 650C-267.444 864.5 -7.44444 0 -7.44444 0Z"/><path fill="#1F1F1F" d="M229.083 222.952C236.781 222.952 241.593 231.285 237.744 237.952L190.112 320.452C186.263 327.119 176.641 327.119 172.792 320.452L125.16 237.952C121.311 231.285 126.123 222.952 133.821 222.952L229.083 222.952Z"/><path fill="#252525" d="M176.083 249.952C183.781 249.952 188.593 258.285 184.744 264.952L137.112 347.452C133.263 354.119 123.641 354.119 119.792 347.452L72.1603 264.952C68.3113 258.285 73.1225 249.952 80.8205 249.952L176.083 249.952Z"/><line x1="615.5" x2="615.5" y1="158" y2="38" stroke="#252525" stroke-width="45"/><line x1="676" x2="556" y1="98.5" y2="98.5" stroke="#252525" stroke-width="45"/><circle cx="1261" cy="147" r="57.5" stroke="#1F1F1F" stroke-width="35"/><line x1="840.085" x2="993.679" y1="472.416" y2="289.37" stroke="#1F1F1F" stroke-width="5"/><line x1="993.882" x2="1092.88" y1="376.374" y2="258.393" stroke="#1F1F1F" stroke-width="5"/><line x1="977.173" x2="1083.59" y1="470.805" y2="343.981" stroke="#1F1F1F" stroke-width="5"/></svg>